<?xml version="1.0" encoding="UTF-8" standalone="no"?>
<svg
   width="210mm"
   height="297mm"
   viewBox="0 0 210 297"
   version="1.1"
   id="svg8"
   inkscape:version="1.1 (ce6663b3b7, 2021-05-25)"
   sodipodi:docname="cavern.svg"
   xmlns:inkscape="http://www.inkscape.org/namespaces/inkscape"
   xmlns:sodipodi="http://sodipodi.sourceforge.net/DTD/sodipodi-0.dtd"
   xmlns="http://www.w3.org/2000/svg"
   xmlns:svg="http://www.w3.org/2000/svg"
   xmlns:rdf="http://www.w3.org/1999/02/22-rdf-syntax-ns#"
   xmlns:cc="http://creativecommons.org/ns#"
   xmlns:dc="http://purl.org/dc/elements/1.1/">
  <defs
     id="defs2" />
  <sodipodi:namedview
     id="base"
     pagecolor="#ffffff"
     bordercolor="#666666"
     borderopacity="1.0"
     inkscape:pageopacity="0.0"
     inkscape:pageshadow="2"
     inkscape:zoom="1.4142136"
     inkscape:cx="192.6866"
     inkscape:cy="474.1151"
     inkscape:document-units="mm"
     inkscape:current-layer="layer1"
     inkscape:document-rotation="0"
     showgrid="false"
     inkscape:snap-intersection-paths="true"
     inkscape:snap-bbox="false"
     inkscape:object-paths="true"
     inkscape:snap-object-midpoints="true"
     inkscape:snap-smooth-nodes="true"
     inkscape:window-width="2242"
     inkscape:window-height="1243"
     inkscape:window-x="1201"
     inkscape:window-y="415"
     inkscape:window-maximized="0"
     inkscape:pagecheckerboard="0" />
  <metadata
     id="metadata5">
    <rdf:RDF>
      <cc:Work
         rdf:about="">
        <dc:format>image/svg+xml</dc:format>
        <dc:type
           rdf:resource="http://purl.org/dc/dcmitype/StillImage" />
      </cc:Work>
    </rdf:RDF>
  </metadata>
  <g
     inkscape:label="Layer 1"
     inkscape:groupmode="layer"
     id="layer1">
    <rect
       style="fill:#ffffcc;stroke-width:0.264583;stroke:#000000;stroke-opacity:1"
       id="rect833"
       width="122.67084"
       height="195.86824"
       x="31.407499"
       y="36.824104"
       A="S1" />
    <path
       style="fill:#de8787;stroke:#000000;stroke-width:0.264583px;stroke-linecap:butt;stroke-linejoin:miter;stroke-opacity:1"
       d="M 31.407499,97.54971 V 232.69235 H 154.07834 l -1e-5,-144.745081 z"
       id="path837"
       A="S2" />
    <path
       style="fill:#999999;stroke:#000000;stroke-width:0.264583px;stroke-linecap:butt;stroke-linejoin:miter;stroke-opacity:1"
       d="M 31.407499,232.69235 H 154.07834 l -1e-5,-90.9725 -122.670831,-24.8672 z"
       id="path835"
       A="S3" />
    <path
       style="fill:#00ffff;stroke:#000000;stroke-width:0.264583px;stroke-linecap:butt;stroke-linejoin:miter;stroke-opacity:1"
       d="m 31.407499,175.29998 17.117962,-8.79704 13.102394,-8.28359 12.11349,-9.58088 10.545551,-12.47315 9.85769,-13.1216 8.421534,-9.60351 8.48616,-9.54854 10.5982,-13.489204 11.42164,-12.67599 6.9866,-4.934446 7.38263,-4.410466 6.63698,-4.201546 V 51.9148 l -11.07871,4.045619 -7.83342,3.635249 -7.30828,4.509788 -4.89405,5.165041 -4.7705,5.315655 -8.22368,5.4186 -7.94708,5.712272 -5.501264,7.704037 -4.920856,8.187589 -6.207919,8.18665 -6.221463,8.17705 -5.691157,8.75805 -5.87029,8.62478 -2.928352,3.91233 -3.528159,3.22777 -6.358058,1.99926 -6.750453,0.97216 -16.63714,2.99757 z"
       id="path849"
       A="S4" />
    <path
       style="fill:#00ffff;stroke:#000000;stroke-width:0.264583px;stroke-linecap:butt;stroke-linejoin:miter;stroke-opacity:1"
       d="m 31.407503,221.99323 17.117962,-8.79704 13.102394,-8.28359 12.11349,-9.58088 10.545551,-12.47315 9.857691,-13.1216 8.421549,-9.60351 8.48615,-9.54854 10.5982,-13.48921 11.42164,-12.67599 6.9866,-4.93444 7.38263,-4.41047 6.63698,-4.20154 V 98.608049 l -11.07871,4.045621 -7.83342,3.63525 -7.30828,4.50978 -4.89405,5.16505 -4.7705,5.31565 -8.22368,5.4186 -7.94708,5.71227 -5.501268,7.70404 -4.920856,8.18759 -6.207919,8.18665 -6.221463,8.17705 -5.691157,8.75805 -5.87029,8.62478 -2.928352,3.91233 -3.528159,3.22777 -6.358058,1.99926 -6.750453,0.97216 -16.63714,2.99757 z"
       id="path849-3"
       A="S4" />
    <path
       style="fill:#0000ff;stroke:#000000;stroke-width:0.264583px;stroke-linecap:butt;stroke-linejoin:miter;stroke-opacity:1"
       d="M 31.407499,161.12516 V 83.069359 l 3.534729,0.791815 5.783044,1.65534 4.063016,1.792191 3.807767,2.271227 3.681252,2.989026 3.254925,3.450694 3.190423,4.118768 2.294201,4.60043 0.543667,5.16346 -0.261016,5.27525 -0.07045,5.45624 -0.618511,5.39018 -1.842817,5.12661 -2.208316,5.01689 -1.631297,4.50012 -1.589955,4.51532 -0.639633,2.00819 -0.774329,1.94913 -2.769176,4.77431 -3.607095,4.09355 -3.573614,2.2177 -4.014331,1.27734 -4.082361,-0.0365 -2.470125,-0.34152 z"
       id="path853"
       A="H1" />
    <path
       style="fill:none;stroke:#000000;stroke-width:1.165;stroke-linecap:butt;stroke-linejoin:miter;stroke-miterlimit:4;stroke-dasharray:none;stroke-opacity:1"
       d="m 74.766695,36.824104 38.662855,0"
       id="path45"
       A="L1" />
    <path
       style="fill:none;stroke:#000000;stroke-width:1.165;stroke-linecap:butt;stroke-linejoin:miter;stroke-miterlimit:4;stroke-dasharray:none;stroke-opacity:1"
       d="m 113.42955,36.824104 40.64879,0"
       id="path45-5"
       A="L1" />
    <path
       style="fill:none;stroke:#000000;stroke-width:1.165;stroke-linecap:butt;stroke-linejoin:miter;stroke-miterlimit:4;stroke-dasharray:none;stroke-opacity:1"
       d="M 31.407499,36.824104 H 74.766695"
       id="path45-7"
       A="L1" />
    <path
       style="fill:none;stroke:#000000;stroke-width:1.165;stroke-linecap:butt;stroke-linejoin:miter;stroke-miterlimit:4;stroke-dasharray:none;stroke-opacity:1"
       d="M 31.407499,232.69235 H 154.07834"
       id="path45-7-6"
       A="L4" />
    <path
       style="fill:none;stroke:#000000;stroke-width:1.165;stroke-linecap:butt;stroke-linejoin:miter;stroke-opacity:1;stroke-miterlimit:4;stroke-dasharray:none"
       d="M 154.07833,58.17885 V 166.53743"
       id="path975"
       A="L2" />
    <path
       style="fill:none;stroke:#000000;stroke-width:1.165;stroke-linecap:butt;stroke-linejoin:miter;stroke-miterlimit:4;stroke-dasharray:none;stroke-opacity:1"
       d="m 154.07833,166.53743 1e-5,66.15492"
       id="path975-5"
       A="L2" />
    <path
       style="fill:none;stroke:#000000;stroke-width:1.165;stroke-linecap:butt;stroke-linejoin:miter;stroke-miterlimit:4;stroke-dasharray:none;stroke-opacity:1"
       d="m 31.407499,36.824104 0,195.868246"
       id="path975-5-2"
       A="L2" />
    <path
       style="fill:none;stroke:#000000;stroke-width:1.165;stroke-linecap:butt;stroke-linejoin:miter;stroke-miterlimit:4;stroke-dasharray:none;stroke-opacity:1"
       d="m 154.07834,36.824104 -1e-5,21.354746"
       id="path975-3"
       A="L2" />
    <path
       style="fill:#ffdd55;fill-opacity:1;stroke:#000000;stroke-width:0.264583px;stroke-linecap:butt;stroke-linejoin:miter;stroke-opacity:1"
       d="m 54.417565,56.035132 -2.765124,2.725032 -2.327859,3.326702 -1.294001,3.588324 0.336448,3.509897 3.199881,3.971929 4.999475,2.351596 5.829526,1.12829 5.690037,0.302009 5.037174,-0.395349 5.003454,-1.267036 4.580048,-2.201054 3.766957,-3.197404 1.663235,-2.433799 1.136128,-2.845839 0.37008,-2.949328 -0.634933,-2.744265 -2.706381,-3.319726 -3.933532,-2.226435 -4.54793,-1.352787 -4.549573,-0.698779 -4.963746,-0.121451 -5.010042,0.686518 -4.736426,1.58599 z"
       id="path1128"
       A="S5" />
    <path
       style="fill:#0000ff;fill-opacity:1;stroke:#000000;stroke-width:0.264583px;stroke-linecap:butt;stroke-linejoin:miter;stroke-opacity:1"
       d="m 102.29763,174.76114 -2.29201,3.78023 -1.929551,4.61489 -1.072593,4.97782 0.278881,4.86903 2.65237,5.50997 4.144053,3.2622 4.83207,1.56519 4.71645,0.41896 4.17529,-0.54844 4.14736,-1.75767 3.79638,-3.05336 3.12242,-4.43553 1.37865,-3.37624 0.94173,-3.94782 0.30676,-4.09138 0.20604,-3.8576 -0.32672,-5.07951 -2.17393,-4.69112 -4.48993,-3.38967 -5.43517,-0.94079 -5.50914,0.14243 -5.71954,3.1797 z"
       id="path1128-9"
       A="H2"
       sodipodi:nodetypes="cccccccccccccccccccccccc" />
    <path
       style="fill:none;stroke:#000000;stroke-width:0.965;stroke-linecap:butt;stroke-linejoin:miter;stroke-miterlimit:4;stroke-dasharray:none;stroke-opacity:1"
       d="m 68.402083,36.824104 -0.9422,8.026847 -2.692104,13.58859 -3.179568,10.20297 -4.544819,11.629599 -17.779814,32.16868"
       id="path1576"
       A="L3" />
    <path
       style="fill:none;stroke:#000000;stroke-width:0.965;stroke-linecap:butt;stroke-linejoin:miter;stroke-miterlimit:4;stroke-dasharray:none;stroke-opacity:1"
       d="m 124.98634,36.824104 -18.36364,16.561086 -6.18825,9.375949 -4.136672,9.268654 -3.089517,11.680349 -0.306894,12.323715 -0.372242,13.427163 0.499209,8.91565 5.295229,28.02479 10.791277,32.29298"
       id="path1576-6"
       A="L3" />
  </g>
</svg>
