<?xml version="1.0" encoding="UTF-8" standalone="no"?>
<!-- Created with Inkscape (http://www.inkscape.org/) -->

<svg
   xmlns:dc="http://purl.org/dc/elements/1.1/"
   xmlns:cc="http://creativecommons.org/ns#"
   xmlns:rdf="http://www.w3.org/1999/02/22-rdf-syntax-ns#"
   xmlns:svg="http://www.w3.org/2000/svg"
   xmlns="http://www.w3.org/2000/svg"
   xmlns:sodipodi="http://sodipodi.sourceforge.net/DTD/sodipodi-0.dtd"
   xmlns:inkscape="http://www.inkscape.org/namespaces/inkscape"
   width="210mm"
   height="297mm"
   viewBox="0 0 210 297"
   version="1.1"
   id="svg925"
   enable-background="new"
   inkscape:version="0.92.5 (2060ec1f9f, 2020-04-08)"
   sodipodi:docname="circle.svg">
  <defs
     id="defs919">
    <filter
       inkscape:collect="always"
       style="color-interpolation-filters:sRGB"
       id="filter1500">
      <feBlend
         inkscape:collect="always"
         mode="screen"
         in2="BackgroundImage"
         id="feBlend1502" />
    </filter>
  </defs>
  <sodipodi:namedview
     id="base"
     pagecolor="#ffffff"
     bordercolor="#666666"
     borderopacity="1.0"
     inkscape:pageopacity="0.0"
     inkscape:pageshadow="2"
     inkscape:zoom="0.35"
     inkscape:cx="-135.71429"
     inkscape:cy="560"
     inkscape:document-units="mm"
     inkscape:current-layer="layer3"
     showgrid="false"
     inkscape:window-width="1848"
     inkscape:window-height="1016"
     inkscape:window-x="72"
     inkscape:window-y="27"
     inkscape:window-maximized="1" />
  <metadata
     id="metadata922">
    <rdf:RDF>
      <cc:Work
         rdf:about="">
        <dc:format>image/svg+xml</dc:format>
        <dc:type
           rdf:resource="http://purl.org/dc/dcmitype/StillImage" />
        <dc:title />
      </cc:Work>
    </rdf:RDF>
  </metadata>
  <g
     inkscape:label="100"
     inkscape:groupmode="layer"
     id="layer1"
     sodipodi:insensitive="true">
    <path
       style="fill:none;stroke:#000000;stroke-width:0.26458332px;stroke-linecap:butt;stroke-linejoin:miter;stroke-opacity:1"
       d="M 26.458333,123.13095 C 26.276685,105.29966 46.157507,90.369299 62.744048,83.821428 78.725029,77.512614 98.903104,79.678982 114.14881,87.601188 130.03843,95.857993 141.34045,112.62389 148.16666,129.17857 154.15009,143.68936 155.61662,160.62453 152.70238,176.04762 149.39647,193.54352 144.87355,216.64896 128.5119,223.67262 114.739,229.58499 99.10082,216.94969 85.422617,210.82143 69.212556,203.55882 47.040764,199.18695 40.065475,182.85119 37.2319,176.21511 34.773809,166.97619 44.60119,161.68452 54.428572,156.39285 47.595248,148.67972 45.357142,142.78571 42.130638,134.28877 26.550917,132.21939 26.458333,123.13095 Z"
       id="path1470"
       inkscape:connector-curvature="0"
       sodipodi:nodetypes="sssssssssss" />
  </g>
  <g
     inkscape:groupmode="layer"
     id="layer2"
     inkscape:label="200"
     style="filter:url(#filter1500)"
     sodipodi:insensitive="true">
    <path
       style="fill:none;stroke:#000000;stroke-width:0.26458332px;stroke-linecap:butt;stroke-linejoin:miter;stroke-opacity:1"
       d="M 29.136098,107.94906 C 28.95445,90.117772 48.835272,75.187411 65.421812,68.63954 81.402794,62.330726 101.58087,64.497094 116.82658,72.4193 132.7162,80.676105 144.01821,97.442001 150.84443,113.99668 156.82786,128.50747 158.29439,145.44265 155.38015,160.86573 152.07424,178.36164 147.55132,201.46708 131.18967,208.49074 117.41677,214.40311 101.77859,201.76781 88.100377,195.63955 71.890322,188.37694 49.718529,184.00507 42.74324,167.66931 39.909665,161.03322 37.451574,151.7943 47.278955,146.50264 57.106336,141.21096 50.273013,133.49784 48.034907,127.60382 44.808403,119.10688 29.228682,117.03751 29.136098,107.94906 Z"
       id="path1470-6"
       inkscape:connector-curvature="0"
       sodipodi:nodetypes="sssssssssss" />
  </g>
  <g
     inkscape:groupmode="layer"
     id="layer3"
     inkscape:label="ยง200">
    <path
       style="fill:none;stroke:#000000;stroke-width:0.26897398px;stroke-linecap:butt;stroke-linejoin:miter;stroke-opacity:1"
       d="M 15.119047,282 H 115.11905"
       id="path830"
       inkscape:connector-curvature="0"
       sodipodi:nodetypes="cc" />
  </g>
</svg>
