<?xml version="1.0" encoding="UTF-8" standalone="no"?>
<!-- Created with Inkscape (http://www.inkscape.org/) -->

<svg
   xmlns:dc="http://purl.org/dc/elements/1.1/"
   xmlns:cc="http://creativecommons.org/ns#"
   xmlns:rdf="http://www.w3.org/1999/02/22-rdf-syntax-ns#"
   xmlns:svg="http://www.w3.org/2000/svg"
   xmlns="http://www.w3.org/2000/svg"
   xmlns:sodipodi="http://sodipodi.sourceforge.net/DTD/sodipodi-0.dtd"
   xmlns:inkscape="http://www.inkscape.org/namespaces/inkscape"
   width="210mm"
   height="297mm"
   viewBox="0 0 210 297"
   version="1.1"
   id="svg2031"
   inkscape:version="0.92.3 (2405546, 2018-03-11)"
   sodipodi:docname="foldp2.svg">
  <defs
     id="defs2025" />
  <sodipodi:namedview
     id="base"
     pagecolor="#ffffff"
     bordercolor="#666666"
     borderopacity="1.0"
     inkscape:pageopacity="0.0"
     inkscape:pageshadow="2"
     inkscape:zoom="0.35"
     inkscape:cx="-111.42857"
     inkscape:cy="674.28571"
     inkscape:document-units="mm"
     inkscape:current-layer="layer1"
     showgrid="false"
     inkscape:snap-global="false"
     inkscape:window-width="1853"
     inkscape:window-height="1145"
     inkscape:window-x="1987"
     inkscape:window-y="27"
     inkscape:window-maximized="1" />
  <metadata
     id="metadata2028">
    <rdf:RDF>
      <cc:Work
         rdf:about="">
        <dc:format>image/svg+xml</dc:format>
        <dc:type
           rdf:resource="http://purl.org/dc/dcmitype/StillImage" />
        <dc:title></dc:title>
      </cc:Work>
    </rdf:RDF>
  </metadata>
  <g
     inkscape:label="10"
     inkscape:groupmode="layer"
     id="layer1">
    <path
       style="fill:none;stroke:#000000;stroke-width:0.26458332px;stroke-linecap:butt;stroke-linejoin:miter;stroke-opacity:1"
       d="M 37.213819,137.57784 C 37.213819,137.57784 43.243649,120.55853 47.637339,112.72177 50.914219,106.87697 53.509519,100.8016 58.060849,95.883772 61.152319,92.543352 65.796729,89.725182 69.820709,87.598412 75.133139,84.790672 84.520529,83.322101 87.193229,82.787561 89.865929,82.253021 98.685819,79.045791 101.35851,80.114871 104.0312,81.183951 113.37963,86.543301 119.53284,89.469302 123.74817,91.473802 128.22698,92.916202 132.36177,95.081962 137.92489,97.995862 143.0376,101.699 148.39795,104.97096 156.92696,110.17706 174.05583,120.47259 174.05583,120.47259 V 120.47259"
       id="path1457-6-2"
       inkscape:connector-curvature="0"
       sodipodi:nodetypes="csssssssssc" />
  </g>
  <g
     inkscape:groupmode="layer"
     id="layer4"
     inkscape:label="150"
     sodipodi:insensitive="true">
    <path
       style="fill:none;stroke:#000000;stroke-width:0.26458332px;stroke-linecap:butt;stroke-linejoin:miter;stroke-opacity:1"
       d="M 36.684652,134.40282 C 36.684652,134.40282 42.714483,117.38351 47.108164,109.54675 50.385048,103.70195 52.98035,97.626601 57.531677,92.708771 60.623149,89.368351 65.267556,86.550181 69.291538,84.423411 74.603972,81.615671 83.991362,80.147101 86.664055,79.612561 89.336755,79.078021 98.156645,75.870791 100.82934,76.939871 103.50203,78.008951 112.85046,83.368301 119.00367,86.294301 123.219,88.298801 127.69781,89.741201 131.8326,91.906961 137.39571,94.820861 142.50843,98.523991 147.86877,101.79594 156.39778,107.00204 173.52665,117.29757 173.52665,117.29757 V 117.29757"
       id="path1457-6"
       inkscape:connector-curvature="0"
       sodipodi:nodetypes="csssssssssc" />
  </g>
</svg>
