<?xml version="1.0" encoding="UTF-8" standalone="no"?>
<!-- Created with Inkscape (http://www.inkscape.org/) -->

<svg
   xmlns:dc="http://purl.org/dc/elements/1.1/"
   xmlns:cc="http://creativecommons.org/ns#"
   xmlns:rdf="http://www.w3.org/1999/02/22-rdf-syntax-ns#"
   xmlns:svg="http://www.w3.org/2000/svg"
   xmlns="http://www.w3.org/2000/svg"
   xmlns:sodipodi="http://sodipodi.sourceforge.net/DTD/sodipodi-0.dtd"
   xmlns:inkscape="http://www.inkscape.org/namespaces/inkscape"
   width="210mm"
   height="297mm"
   viewBox="0 0 210 297"
   version="1.1"
   id="svg8"
   inkscape:version="0.92.3 (2405546, 2018-03-11)"
   sodipodi:docname="slab.svg">
  <defs
     id="defs2" />
  <sodipodi:namedview
     id="base"
     pagecolor="#ffffff"
     bordercolor="#666666"
     borderopacity="1.0"
     inkscape:pageopacity="0.0"
     inkscape:pageshadow="2"
     inkscape:zoom="0.75187991"
     inkscape:cx="396.85039"
     inkscape:cy="785.72794"
     inkscape:document-units="mm"
     inkscape:current-layer="g831"
     showgrid="false"
     inkscape:window-width="1853"
     inkscape:window-height="1025"
     inkscape:window-x="1987"
     inkscape:window-y="27"
     inkscape:window-maximized="1" />
  <metadata
     id="metadata5">
    <rdf:RDF>
      <cc:Work
         rdf:about="">
        <dc:format>image/svg+xml</dc:format>
        <dc:type
           rdf:resource="http://purl.org/dc/dcmitype/StillImage" />
        <dc:title />
      </cc:Work>
    </rdf:RDF>
  </metadata>
  <g
     inkscape:label="m15p5"
     inkscape:groupmode="layer"
     id="layer1"
     style="display:inline"
     sodipodi:insensitive="true">
    <path
       sodipodi:nodetypes="ssssssssssssssss"
       inkscape:connector-curvature="0"
       id="path828"
       d="M 241.55134,79.856838 C 228.40375,71.163795 157.1021,82.675418 141.36309,83.519046 131.06114,84.071242 121.00652,80.881628 109.69133,82.659154 96.944082,84.661645 83.612967,81.092124 72.610738,87.834034 62.953651,93.751674 53.88212,119.81761 45.266052,127.16888 35.527361,135.47798 4.5513404,194.19613 -2.1627736,205.09585 -5.5022256,210.51713 -16.135985,226.50004 -14.635988,232.68811 -13.210986,238.5668 -5.7353155,241.0363 0.09185147,239.41343 7.4866455,237.35398 37.603528,173.61935 41.577381,167.05179 47.465274,157.32092 58.039,132.95607 60.306857,131.44417 62.574715,129.93227 75.803706,105.32621 83.480575,98.912511 93.148003,90.835801 116.33843,96.526721 116.33843,96.526721 117.69886,97.838541 129.79667,95.13779 137.20536,94.480356 149.25391,93.411189 161.40292,94.425606 173.49107,94.858332 179.67228,95.079604 237.16031,101.84513 240.62605,96.722134 242.11027,94.528191 243.76087,81.317755 241.55134,79.856838 Z"
       style="fill:none;stroke:#000000;stroke-width:0.26458332px;stroke-linecap:butt;stroke-linejoin:miter;stroke-opacity:1" />
  </g>
  <g
     inkscape:label="200"
     id="g831"
     inkscape:groupmode="layer">
    <path
       style="display:inline;fill:none;stroke:#000000;stroke-width:0.26458332px;stroke-linecap:butt;stroke-linejoin:miter;stroke-opacity:1"
       d="M 226.06792,165.56848 C 212.92033,156.87544 141.61868,168.38706 125.87967,169.23069 115.57772,169.78288 105.52309,166.59327 94.207914,168.3708 81.460668,170.37329 68.129548,166.80377 57.127318,173.54567 47.470228,179.46331 38.398698,205.52922 29.782628,212.88044 20.043938,221.18949 -10.932079,279.9073 -17.646193,290.80696 -20.985646,296.22821 -31.619405,312.21103 -30.119408,318.39907 -28.694406,324.27774 -21.218736,326.74724 -15.391568,325.12437 -7.9967743,323.06492 22.120108,259.33064 26.093958,252.76312 31.981858,243.0323 42.555578,218.6676 44.823438,217.15571 47.091298,215.64382 60.320288,191.03784 67.997158,184.62415 77.664588,176.54744 100.85501,182.23836 100.85501,182.23836 102.21544,183.55018 114.31325,180.84943 121.72194,180.192 133.77049,179.12283 145.9195,180.13725 158.00765,180.56997 164.18886,180.79124 221.67689,187.55676 225.14263,182.43377 226.62685,180.23983 228.27745,167.0294 226.06792,165.56848 Z"
       id="path829"
       inkscape:connector-curvature="0"
       sodipodi:nodetypes="ssssssssssssssss" />
  </g>
  <g
     inkscape:label="300"
     id="g827"
     inkscape:groupmode="layer"
     sodipodi:insensitive="true">
    <path
       style="display:inline;fill:none;stroke:#000000;stroke-width:0.26458332px;stroke-linecap:butt;stroke-linejoin:miter;stroke-opacity:1"
       d="M 233.80963,-24.553085 C 220.66204,-33.246128 149.36039,-21.734505 133.62138,-20.890877 123.31943,-20.338681 113.2648,-23.528295 101.94962,-21.750769 89.202374,-19.748278 75.871254,-23.317799 64.869024,-16.57589 55.211934,-10.65825 46.140404,15.40764 37.524334,22.758868 27.785644,31.067923 -3.1903732,89.78574 -9.9044872,100.6854 -13.24394,106.10668 -23.877699,122.08959 -22.377702,128.27766 -20.9527,134.15635 -13.47703,136.62585 -7.6498622,135.00298 -0.25506816,132.94353 29.861814,69.209077 33.835664,62.641553 39.723564,52.910737 50.297284,28.546028 52.565144,27.034134 54.833004,25.522243 68.061994,0.91627158 75.738864,-5.4974157 85.406294,-13.574123 108.59672,-7.8832045 108.59672,-7.8832045 109.95715,-6.5713851 122.05496,-9.2721346 129.46365,-9.9295683 141.5122,-10.998735 153.66121,-9.9843183 165.74936,-9.5515923 171.93057,-9.3303206 229.4186,-2.5648055 232.88434,-7.6877915 234.36856,-9.8817333 236.01916,-23.092168 233.80963,-24.553085 Z"
       id="path825"
       inkscape:connector-curvature="0"
       sodipodi:nodetypes="ssssssssssssssss" />
  </g>
  <g
     inkscape:groupmode="layer"
     id="layer2"
     inkscape:label="400"
     sodipodi:insensitive="true">
    <path
       sodipodi:nodetypes="ssssssssssssssss"
       inkscape:connector-curvature="0"
       id="path828-3"
       d="M 233.80963,-55.773938 C 220.66204,-64.466981 149.36039,-52.955358 133.62138,-52.11173 123.31943,-51.559534 113.2648,-54.749148 101.94962,-52.971622 89.202374,-50.969131 75.871254,-54.538652 64.869024,-47.796743 55.211934,-41.879103 46.140404,-15.813201 37.524334,-8.4619744 27.785644,-0.15292391 -3.1903732,58.564887 -9.9044872,69.464544 -13.24394,74.885794 -23.877699,90.868614 -22.377702,97.056648 -20.9527,102.93532 -13.47703,105.40482 -7.6498622,103.78195 -0.25506816,101.7225 29.861814,37.988224 33.835664,31.4207 39.723564,21.689884 50.297284,-2.6748177 52.565144,-4.1867108 54.833004,-5.6986008 68.061994,-30.304575 75.738864,-36.718266 85.406294,-44.794976 108.59672,-39.104056 108.59672,-39.104056 109.95715,-37.792236 122.05496,-40.492987 129.46365,-41.150421 141.5122,-42.219588 153.66121,-41.205171 165.74936,-40.772445 171.93057,-40.551173 229.4186,-33.785654 232.88434,-38.908643 234.36856,-41.102586 236.01916,-54.313021 233.80963,-55.773938 Z"
       style="display:inline;fill:none;stroke:#000000;stroke-width:0.26458332px;stroke-linecap:butt;stroke-linejoin:miter;stroke-opacity:1" />
  </g>
  <g
     style="display:inline"
     id="g924"
     inkscape:groupmode="layer"
     inkscape:label="500"
     sodipodi:insensitive="true">
    <path
       style="fill:none;stroke:#000000;stroke-width:0.26458332px;stroke-linecap:butt;stroke-linejoin:miter;stroke-opacity:1"
       d="M 244.36651,75.784893 C 231.21892,67.09185 157.1021,72.621245 141.36309,73.464873 131.06114,74.017069 121.00652,70.827455 109.69133,72.604981 96.944082,74.607472 83.612967,71.037951 72.610738,77.779861 62.953651,83.697501 53.88212,109.76338 45.266052,117.11465 35.527361,125.42375 26.368876,151.76749 19.654762,162.66721 16.31531,168.08849 -18.599255,218.90908 -17.099258,225.09715 -15.674257,230.97584 -11.013752,235.90862 -5.1865846,234.28575 2.2082094,232.2263 37.603528,163.56512 41.577381,156.99756 47.465274,147.26669 58.039,122.90184 60.306857,121.38994 62.574715,119.87804 75.803706,95.272007 83.480575,88.858336 93.148003,80.781628 116.33843,86.472548 116.33843,86.472548 117.69886,87.784372 129.79667,85.083617 137.20536,84.426183 149.25391,83.357016 161.40292,84.371433 173.49107,84.804159 179.67228,85.025431 240.67927,93.19853 244.14501,88.075547 245.62923,85.881601 246.57604,77.24581 244.36651,75.784893 Z"
       id="path922"
       inkscape:connector-curvature="0"
       sodipodi:nodetypes="ssssssssssssssss" />
  </g>
</svg>
