<?xml version="1.0" encoding="UTF-8" standalone="no"?>
<!-- Created with Inkscape (http://www.inkscape.org/) -->

<svg
   xmlns:dc="http://purl.org/dc/elements/1.1/"
   xmlns:cc="http://creativecommons.org/ns#"
   xmlns:rdf="http://www.w3.org/1999/02/22-rdf-syntax-ns#"
   xmlns:svg="http://www.w3.org/2000/svg"
   xmlns="http://www.w3.org/2000/svg"
   xmlns:sodipodi="http://sodipodi.sourceforge.net/DTD/sodipodi-0.dtd"
   xmlns:inkscape="http://www.inkscape.org/namespaces/inkscape"
   width="210mm"
   height="297mm"
   viewBox="0 0 210 297"
   version="1.1"
   id="svg8"
   inkscape:version="0.92.3 (2405546, 2018-03-11)"
   sodipodi:docname="slab.svg">
  <defs
     id="defs2" />
  <sodipodi:namedview
     id="base"
     pagecolor="#ffffff"
     bordercolor="#666666"
     borderopacity="1.0"
     inkscape:pageopacity="0.0"
     inkscape:pageshadow="2"
     inkscape:zoom="0.75187991"
     inkscape:cx="396.85039"
     inkscape:cy="785.72794"
     inkscape:document-units="mm"
     inkscape:current-layer="layer2"
     showgrid="false"
     inkscape:window-width="1853"
     inkscape:window-height="1025"
     inkscape:window-x="67"
     inkscape:window-y="27"
     inkscape:window-maximized="1" />
  <metadata
     id="metadata5">
    <rdf:RDF>
      <cc:Work
         rdf:about="">
        <dc:format>image/svg+xml</dc:format>
        <dc:type
           rdf:resource="http://purl.org/dc/dcmitype/StillImage" />
        <dc:title />
      </cc:Work>
    </rdf:RDF>
  </metadata>
  <g
     inkscape:label="m15p5"
     inkscape:groupmode="layer"
     id="layer1"
     style="display:inline"
     sodipodi:insensitive="true">
    <path
       sodipodi:nodetypes="ssssssssssssssss"
       inkscape:connector-curvature="0"
       id="path828"
       d="M 241.55134,78.269337 C 228.40375,69.576294 157.1021,81.087917 141.36309,81.931545 131.06114,82.483741 121.00652,79.294127 109.69133,81.071653 96.944082,83.074144 83.612967,79.504623 72.610738,86.246533 62.953651,92.164173 53.88212,118.2301 45.266052,125.58137 35.527361,133.89047 4.5513404,192.60862 -2.1627736,203.50834 -5.5022256,208.92962 -16.135985,224.91253 -14.635988,231.1006 -13.210986,236.97929 -5.7353155,239.44879 0.09185147,237.82592 7.4866455,235.76647 37.603528,172.03184 41.577381,165.46428 47.465274,155.73341 58.039,131.36856 60.306857,129.85666 62.574715,128.34476 75.803706,103.7387 83.480575,97.32501 93.148003,89.2483 116.33843,94.93922 116.33843,94.93922 117.69886,96.25104 129.79667,93.550289 137.20536,92.892855 149.25391,91.823688 161.40292,92.838105 173.49107,93.270831 179.67228,93.492103 237.16031,100.25762 240.62605,95.134633 242.11027,92.94069 243.76087,79.730254 241.55134,78.269337 Z"
       style="fill:none;stroke:#000000;stroke-width:0.26458332px;stroke-linecap:butt;stroke-linejoin:miter;stroke-opacity:1" />
  </g>
  <g
     inkscape:groupmode="layer"
     id="layer2"
     inkscape:label="150">
    <path
       sodipodi:nodetypes="ssssssssssssssss"
       inkscape:connector-curvature="0"
       id="path828-3"
       d="M 233.80963,26.246935 C 220.66204,17.553892 149.36039,29.065515 133.62138,29.909143 123.31943,30.461339 113.2648,27.271725 101.94962,29.049251 89.202374,31.051742 75.871254,27.482221 64.869024,34.22413 55.211934,40.14177 46.140404,66.207672 37.524334,73.5589 27.785644,81.867955 -3.1903732,140.586 -9.9044872,151.48572 -13.24394,156.907 -23.877699,172.88991 -22.377702,179.07798 -20.9527,184.95667 -13.47703,187.42617 -7.6498622,185.8033 -0.25506816,183.74385 29.861814,120.00922 33.835664,113.44166 39.723564,103.71079 50.297284,79.34606 52.565144,77.834166 54.833004,76.322275 68.061994,51.716298 75.738864,45.302607 85.406294,37.225897 108.59672,42.916817 108.59672,42.916817 109.95715,44.228637 122.05496,41.527886 129.46365,40.870452 141.5122,39.801285 153.66121,40.815702 165.74936,41.248428 171.93057,41.4697 229.4186,48.235219 232.88434,43.11223 234.36856,40.918287 236.01916,27.707852 233.80963,26.246935 Z"
       style="display:inline;fill:none;stroke:#000000;stroke-width:0.26458332px;stroke-linecap:butt;stroke-linejoin:miter;stroke-opacity:1" />
  </g>
  <g
     style="display:inline"
     id="g924"
     inkscape:groupmode="layer"
     inkscape:label="500"
     sodipodi:insensitive="true">
    <path
       style="fill:none;stroke:#000000;stroke-width:0.26458332px;stroke-linecap:butt;stroke-linejoin:miter;stroke-opacity:1"
       d="M 244.36651,75.784893 C 231.21892,67.09185 157.1021,72.621245 141.36309,73.464873 131.06114,74.017069 121.00652,70.827455 109.69133,72.604981 96.944082,74.607472 83.612967,71.037951 72.610738,77.779861 62.953651,83.697501 53.88212,109.76338 45.266052,117.11465 35.527361,125.42375 26.368876,151.76749 19.654762,162.66721 16.31531,168.08849 -18.599255,218.90908 -17.099258,225.09715 -15.674257,230.97584 -11.013752,235.90862 -5.1865846,234.28575 2.2082094,232.2263 37.603528,163.56512 41.577381,156.99756 47.465274,147.26669 58.039,122.90184 60.306857,121.38994 62.574715,119.87804 75.803706,95.272007 83.480575,88.858336 93.148003,80.781628 116.33843,86.472548 116.33843,86.472548 117.69886,87.784372 129.79667,85.083617 137.20536,84.426183 149.25391,83.357016 161.40292,84.371433 173.49107,84.804159 179.67228,85.025431 240.67927,93.19853 244.14501,88.075547 245.62923,85.881601 246.57604,77.24581 244.36651,75.784893 Z"
       id="path922"
       inkscape:connector-curvature="0"
       sodipodi:nodetypes="ssssssssssssssss" />
  </g>
</svg>
