<?xml version="1.0" encoding="UTF-8" standalone="no"?>
<!-- Created with Inkscape (http://www.inkscape.org/) -->

<svg
   xmlns:dc="http://purl.org/dc/elements/1.1/"
   xmlns:cc="http://creativecommons.org/ns#"
   xmlns:rdf="http://www.w3.org/1999/02/22-rdf-syntax-ns#"
   xmlns:svg="http://www.w3.org/2000/svg"
   xmlns="http://www.w3.org/2000/svg"
   xmlns:sodipodi="http://sodipodi.sourceforge.net/DTD/sodipodi-0.dtd"
   xmlns:inkscape="http://www.inkscape.org/namespaces/inkscape"
   width="210mm"
   height="297mm"
   viewBox="0 0 210 297"
   version="1.1"
   id="svg8"
   inkscape:version="0.92.5 (2060ec1f9f, 2020-04-08)"
   sodipodi:docname="slab.svg">
  <defs
     id="defs2" />
  <sodipodi:namedview
     id="base"
     pagecolor="#ffffff"
     bordercolor="#666666"
     borderopacity="1.0"
     inkscape:pageopacity="0.0"
     inkscape:pageshadow="2"
     inkscape:zoom="0.75187991"
     inkscape:cx="-79.289473"
     inkscape:cy="624.13298"
     inkscape:document-units="mm"
     inkscape:current-layer="g924"
     showgrid="false"
     inkscape:window-width="1848"
     inkscape:window-height="1016"
     inkscape:window-x="72"
     inkscape:window-y="27"
     inkscape:window-maximized="1" />
  <metadata
     id="metadata5">
    <rdf:RDF>
      <cc:Work
         rdf:about="">
        <dc:format>image/svg+xml</dc:format>
        <dc:type
           rdf:resource="http://purl.org/dc/dcmitype/StillImage" />
        <dc:title />
      </cc:Work>
    </rdf:RDF>
  </metadata>
  <g
     inkscape:label="m100"
     inkscape:groupmode="layer"
     id="layer1"
     style="display:inline"
     sodipodi:insensitive="true">
    <path
       sodipodi:nodetypes="ssssssssssssssss"
       inkscape:connector-curvature="0"
       id="path828"
       d="M 241.55134,79.856838 C 228.40375,71.163795 157.1021,82.675418 141.36309,83.519046 131.06114,84.071242 121.00652,80.881628 109.69133,82.659154 96.944082,84.661645 83.612967,81.092124 72.610738,87.834034 62.953651,93.751674 53.88212,119.81761 45.266052,127.16888 35.527361,135.47798 4.5513404,194.19613 -2.1627736,205.09585 -5.5022256,210.51713 -39.712999,224.74056 -38.213002,230.92863 -36.788,236.80732 -25.089581,231.88701 -19.262414,230.26414 -11.86762,228.20469 37.603528,173.61935 41.577381,167.05179 47.465274,157.32092 58.039,132.95607 60.306857,131.44417 62.574715,129.93227 75.803706,105.32621 83.480575,98.912511 93.148003,90.835801 116.33843,96.526721 116.33843,96.526721 117.69886,97.838541 129.79667,95.13779 137.20536,94.480356 149.25391,93.411189 161.40292,94.425606 173.49107,94.858332 179.67228,95.079604 237.16031,101.84513 240.62605,96.722134 242.11027,94.528191 243.76087,81.317755 241.55134,79.856838 Z"
       style="fill:none;stroke:#000000;stroke-width:0.26458332px;stroke-linecap:butt;stroke-linejoin:miter;stroke-opacity:1" />
  </g>
  <g
     style="display:inline"
     id="g924"
     inkscape:groupmode="layer"
     inkscape:label="250">
    <path
       sodipodi:nodetypes="ssssssssssssssss"
       inkscape:connector-curvature="0"
       id="path828-3"
       d="M 241.55134,79.856838 C 228.40375,71.163795 157.1021,82.675419 141.36309,83.519046 131.06114,84.071242 121.00652,80.881628 109.69133,82.659155 96.94408,84.661646 83.61296,81.092125 72.61074,87.834034 62.95365,93.751674 53.882117,119.81761 45.266048,127.16889 35.527357,135.47798 4.5513346,194.19614 -2.1627754,205.09586 -5.5022254,210.51714 -39.713005,224.74057 -38.213005,230.92864 -36.788005,236.80733 -25.089585,231.88702 -19.262415,230.26415 -11.867625,228.2047 37.603524,173.61936 41.577378,167.0518 47.46527,157.32093 58.038996,132.95607 60.306854,131.44418 62.57471,129.93228 75.8037,105.32621 83.48057,98.912511 93.148,90.835801 116.33843,96.526721 116.33843,96.526721 117.69886,97.838541 129.79667,95.13779 137.20536,94.480356 149.25391,93.411189 161.40292,94.425606 173.49107,94.858332 179.67228,95.079604 237.16032,101.84513 240.62604,96.722134 242.11027,94.528191 243.76088,81.317755 241.55134,79.856838 Z"
       style="display:inline;fill:none;stroke:#000000;stroke-width:0.26458332px;stroke-linecap:butt;stroke-linejoin:miter;stroke-opacity:1" />
  </g>
</svg>
