<?xml version="1.0" encoding="UTF-8" standalone="no"?>
<!-- Created with Inkscape (http://www.inkscape.org/) -->

<svg
   xmlns:dc="http://purl.org/dc/elements/1.1/"
   xmlns:cc="http://creativecommons.org/ns#"
   xmlns:rdf="http://www.w3.org/1999/02/22-rdf-syntax-ns#"
   xmlns:svg="http://www.w3.org/2000/svg"
   xmlns="http://www.w3.org/2000/svg"
   xmlns:sodipodi="http://sodipodi.sourceforge.net/DTD/sodipodi-0.dtd"
   xmlns:inkscape="http://www.inkscape.org/namespaces/inkscape"
   width="210mm"
   height="297mm"
   viewBox="0 0 210 297"
   version="1.1"
   id="svg8"
   inkscape:version="0.92.3 (2405546, 2018-03-11)"
   sodipodi:docname="slab.svg">
  <defs
     id="defs2" />
  <sodipodi:namedview
     id="base"
     pagecolor="#ffffff"
     bordercolor="#666666"
     borderopacity="1.0"
     inkscape:pageopacity="0.0"
     inkscape:pageshadow="2"
     inkscape:zoom="0.75187991"
     inkscape:cx="-79.289473"
     inkscape:cy="624.13298"
     inkscape:document-units="mm"
     inkscape:current-layer="g831"
     showgrid="false"
     inkscape:window-width="1853"
     inkscape:window-height="1025"
     inkscape:window-x="1987"
     inkscape:window-y="27"
     inkscape:window-maximized="1" />
  <metadata
     id="metadata5">
    <rdf:RDF>
      <cc:Work
         rdf:about="">
        <dc:format>image/svg+xml</dc:format>
        <dc:type
           rdf:resource="http://purl.org/dc/dcmitype/StillImage" />
        <dc:title />
      </cc:Work>
    </rdf:RDF>
  </metadata>
  <g
     inkscape:label="m100"
     inkscape:groupmode="layer"
     id="layer1"
     style="display:inline"
     sodipodi:insensitive="true">
    <path
       sodipodi:nodetypes="ssssssssssssssss"
       inkscape:connector-curvature="0"
       id="path828"
       d="M 241.55134,79.856838 C 228.40375,71.163795 157.1021,82.675418 141.36309,83.519046 131.06114,84.071242 121.00652,80.881628 109.69133,82.659154 96.944082,84.661645 83.612967,81.092124 72.610738,87.834034 62.953651,93.751674 53.88212,119.81761 45.266052,127.16888 35.527361,135.47798 4.5513404,194.19613 -2.1627736,205.09585 -5.5022256,210.51713 -39.712999,224.74056 -38.213002,230.92863 -36.788,236.80732 -25.089581,231.88701 -19.262414,230.26414 -11.86762,228.20469 37.603528,173.61935 41.577381,167.05179 47.465274,157.32092 58.039,132.95607 60.306857,131.44417 62.574715,129.93227 75.803706,105.32621 83.480575,98.912511 93.148003,90.835801 116.33843,96.526721 116.33843,96.526721 117.69886,97.838541 129.79667,95.13779 137.20536,94.480356 149.25391,93.411189 161.40292,94.425606 173.49107,94.858332 179.67228,95.079604 237.16031,101.84513 240.62605,96.722134 242.11027,94.528191 243.76087,81.317755 241.55134,79.856838 Z"
       style="fill:none;stroke:#000000;stroke-width:0.26458332px;stroke-linecap:butt;stroke-linejoin:miter;stroke-opacity:1" />
  </g>
  <g
     inkscape:label="$200"
     id="g831"
     inkscape:groupmode="layer"
     style="display:inline">
    <path
       style="display:inline;fill:none;stroke:#000000;stroke-width:0.26458332px;stroke-linecap:butt;stroke-linejoin:miter;stroke-opacity:1"
       d="M 232.77516,65.010501 C 219.62757,56.317509 148.32592,67.829063 132.58691,68.67269 122.28496,69.224877 112.23033,66.035285 100.91512,67.812803 88.167861,69.815284 74.836741,66.245782 63.834511,72.987646 54.177421,78.90525 54.25518,117.63925 45.63911,124.99047 35.90042,133.29952 -11.262805,188.85026 -17.976919,199.74992 -21.316372,205.17117 -55.175247,214.46798 -53.675247,220.65602 -52.250247,226.53469 -32.458227,219.15111 -26.631067,217.52824 -19.236272,215.46879 38.680382,166.86602 42.654232,160.2985 48.542132,150.56768 56.300686,133.2409 58.568546,131.72901 60.836406,130.21712 67.027481,90.479714 74.704351,84.066063 84.371781,75.989398 107.56225,81.680285 107.56225,81.680285 108.92268,82.992099 121.02049,80.291364 128.42918,79.633937 140.47773,78.564773 152.62674,79.579187 164.71489,80.011904 170.8961,80.233174 228.38413,86.998655 231.84987,81.875695 233.33409,79.681767 234.98469,66.471412 232.77516,65.010501 Z"
       id="path829"
       inkscape:connector-curvature="0"
       sodipodi:nodetypes="ssssssssssssssss" />
  </g>
  <g
     inkscape:label="400"
     id="g827"
     inkscape:groupmode="layer"
     sodipodi:insensitive="true"
     style="display:none">
    <path
       style="display:inline;fill:none;stroke:#000000;stroke-width:0.26458332px;stroke-linecap:butt;stroke-linejoin:miter;stroke-opacity:1"
       d="M 243.31081,61.66931 C 230.16322,52.976267 158.86157,64.48789 143.12256,65.331518 132.82061,65.883714 122.76598,62.6941 111.4508,64.471626 98.703559,66.474117 85.372439,62.904596 74.370209,69.646505 64.713119,75.564144 55.641589,101.63004 47.025519,108.98126 37.286829,117.29032 12.996831,179.87899 6.2827166,190.77866 2.9432638,196.19994 -41.472486,217.10939 -39.972489,223.29746 -38.547487,229.17615 -11.717551,215.81035 -5.8903836,214.18748 1.5044105,212.12803 39.362999,155.43147 43.336849,148.86395 49.224749,139.13313 59.798469,114.76842 62.066329,113.25653 64.334189,111.74464 77.563179,87.138665 85.240049,80.724978 94.907479,72.648272 118.0979,78.339189 118.0979,78.339189 119.45833,79.651008 131.55614,76.950259 138.96483,76.292825 151.01338,75.223659 163.16239,76.238075 175.25054,76.670801 181.43175,76.892073 238.91978,83.657588 242.38552,78.534602 243.86974,76.34066 245.52034,63.130227 243.31081,61.66931 Z"
       id="path825"
       inkscape:connector-curvature="0"
       sodipodi:nodetypes="ssssssssssssssss" />
  </g>
  <g
     inkscape:groupmode="layer"
     id="layer2"
     inkscape:label="600"
     style="display:none"
     sodipodi:insensitive="true">
    <path
       sodipodi:nodetypes="ssssssssssssssss"
       inkscape:connector-curvature="0"
       id="path828-3"
       d="M 235.26762,60.642242 C 222.12003,51.949199 150.81837,63.460822 135.07936,64.30445 124.77741,64.856646 114.72278,61.667032 103.4076,63.444558 90.660353,65.447049 77.329237,61.877528 66.327007,68.619437 56.669917,74.537077 47.598387,100.60298 38.982317,107.9542 29.243627,116.26325 7.4168946,179.5557 0.7027846,190.45536 -2.6366649,195.87661 -43.181562,219.24925 -41.681572,225.43728 -40.256562,231.31596 -14.83421,217.95016 -9.0070504,216.32729 -1.6122504,214.26784 31.319797,154.4044 35.293647,147.83688 41.181547,138.10606 51.755267,113.74136 54.023127,112.22947 56.290987,110.71758 69.519977,86.111605 77.196847,79.697914 86.864277,71.621204 110.0547,77.312124 110.0547,77.312124 111.41513,78.623944 123.51294,75.923193 130.92163,75.265759 142.97018,74.196592 155.11919,75.211009 167.20734,75.643735 173.38855,75.865007 230.87659,82.630526 234.34233,77.507537 235.82655,75.313594 237.47715,62.103159 235.26762,60.642242 Z"
       style="display:inline;fill:none;stroke:#000000;stroke-width:0.26458332px;stroke-linecap:butt;stroke-linejoin:miter;stroke-opacity:1" />
  </g>
  <g
     style="display:inline"
     id="g924"
     inkscape:groupmode="layer"
     inkscape:label="1800"
     sodipodi:insensitive="true">
    <path
       style="fill:none;stroke:#000000;stroke-width:0.26458332px;stroke-linecap:butt;stroke-linejoin:miter;stroke-opacity:1"
       d="M 244.36651,75.784893 C 231.21892,67.09185 157.1021,72.621245 141.36309,73.464873 131.06114,74.017069 121.00652,70.827455 109.69133,72.604981 96.944082,74.607472 83.612967,71.037951 72.610738,77.779861 62.953651,83.697501 53.88212,109.76338 45.266052,117.11465 35.527361,125.42375 9.125985,190.82792 2.411871,201.72764 -0.927581,207.14892 -39.009208,218.55718 -37.509211,224.74525 -36.08421,230.62394 -35.998349,231.68587 -30.171182,230.063 -22.776388,228.00355 3.8215375,216.34948 7.7953905,209.78192 13.683283,200.05105 58.039,122.90184 60.306857,121.38994 62.574715,119.87804 75.803706,95.272007 83.480575,88.858336 93.148003,80.781628 116.33843,86.472548 116.33843,86.472548 117.69886,87.784372 129.79667,85.083617 137.20536,84.426183 149.25391,83.357016 161.40292,84.371433 173.49107,84.804159 179.67228,85.025431 240.67927,93.19853 244.14501,88.075547 245.62923,85.881601 246.57604,77.24581 244.36651,75.784893 Z"
       id="path922"
       inkscape:connector-curvature="0"
       sodipodi:nodetypes="ssssssssssssssss" />
  </g>
</svg>
