<?xml version="1.0" encoding="UTF-8" standalone="no"?>
<!-- Created with Inkscape (http://www.inkscape.org/) -->

<svg
   xmlns:dc="http://purl.org/dc/elements/1.1/"
   xmlns:cc="http://creativecommons.org/ns#"
   xmlns:rdf="http://www.w3.org/1999/02/22-rdf-syntax-ns#"
   xmlns:svg="http://www.w3.org/2000/svg"
   xmlns="http://www.w3.org/2000/svg"
   xmlns:sodipodi="http://sodipodi.sourceforge.net/DTD/sodipodi-0.dtd"
   xmlns:inkscape="http://www.inkscape.org/namespaces/inkscape"
   width="210mm"
   height="297mm"
   viewBox="0 0 210 297"
   version="1.1"
   id="svg8"
   inkscape:version="0.92.3 (2405546, 2018-03-11)"
   sodipodi:docname="slab.svg">
  <defs
     id="defs2" />
  <sodipodi:namedview
     id="base"
     pagecolor="#ffffff"
     bordercolor="#666666"
     borderopacity="1.0"
     inkscape:pageopacity="0.0"
     inkscape:pageshadow="2"
     inkscape:zoom="0.75187991"
     inkscape:cx="396.85039"
     inkscape:cy="561.25984"
     inkscape:document-units="mm"
     inkscape:current-layer="g924"
     showgrid="false"
     inkscape:window-width="1853"
     inkscape:window-height="1025"
     inkscape:window-x="1987"
     inkscape:window-y="27"
     inkscape:window-maximized="1" />
  <metadata
     id="metadata5">
    <rdf:RDF>
      <cc:Work
         rdf:about="">
        <dc:format>image/svg+xml</dc:format>
        <dc:type
           rdf:resource="http://purl.org/dc/dcmitype/StillImage" />
        <dc:title></dc:title>
      </cc:Work>
    </rdf:RDF>
  </metadata>
  <g
     inkscape:label="m15p5"
     inkscape:groupmode="layer"
     id="layer1"
     style="display:inline"
     sodipodi:insensitive="true">
    <path
       sodipodi:nodetypes="ssssssssssssssss"
       inkscape:connector-curvature="0"
       id="path828"
       d="M 201.08333,84.955356 C 187.93574,76.262313 157.1021,81.087917 141.36309,81.931545 131.06114,82.483741 121.00652,79.294127 109.69133,81.071653 96.944082,83.074144 83.612967,79.504623 72.610738,86.246533 62.953651,92.164173 53.88212,118.2301 45.266052,125.58137 35.527361,133.89047 26.368876,160.23421 19.654762,171.13393 16.31531,176.55521 5.6815507,192.53812 7.1815477,198.72619 8.6065491,204.60488 10.803784,206.0187 16.630951,204.39583 24.025745,202.33638 37.603528,172.03184 41.577381,165.46428 47.465274,155.73341 58.039,131.36856 60.306857,129.85666 62.574715,128.34476 75.803706,103.7387 83.480575,97.32501 93.148003,89.2483 116.33843,94.93922 116.33843,94.93922 117.69886,96.25104 129.79667,93.550289 137.20536,92.892855 149.25391,91.823688 161.40292,92.838105 173.49107,93.270831 179.67228,93.492103 199.50747,99.90572 202.97321,94.782737 204.45743,92.588794 203.29286,86.416273 201.08333,84.955356 Z"
       style="fill:none;stroke:#000000;stroke-width:0.26458332px;stroke-linecap:butt;stroke-linejoin:miter;stroke-opacity:1" />
  </g>
  <g
     style="display:inline"
     id="g916"
     inkscape:groupmode="layer"
     inkscape:label="m5"
     sodipodi:insensitive="true">
    <path
       style="fill:none;stroke:#000000;stroke-width:0.26458332px;stroke-linecap:butt;stroke-linejoin:miter;stroke-opacity:1"
       d="M 201.08333,79.663686 C 187.93574,70.970643 157.1021,75.796247 141.36309,76.639875 131.06114,77.192071 121.00652,74.002457 109.69133,75.779983 96.944082,77.782474 83.612967,74.212953 72.610738,80.954863 62.953651,86.872503 53.88212,112.9384 45.266052,120.28967 35.527361,128.59877 26.368876,154.94251 19.654762,165.84223 16.31531,171.26351 5.6815507,187.24642 7.1815477,193.43449 8.6065491,199.31318 10.803784,200.727 16.630951,199.10413 24.025745,197.04468 37.603528,166.74014 41.577381,160.17258 47.465274,150.44171 58.039,126.07686 60.306857,124.56496 62.574715,123.05306 75.803706,98.447009 83.480575,92.033338 93.148003,83.95663 116.33843,89.64755 116.33843,89.64755 117.69886,90.959374 129.79667,88.258619 137.20536,87.601185 149.25391,86.532018 161.40292,87.546435 173.49107,87.979161 179.67228,88.200433 199.50747,94.614053 202.97321,89.49107 204.45743,87.297124 203.29286,81.124603 201.08333,79.663686 Z"
       id="path914"
       inkscape:connector-curvature="0"
       sodipodi:nodetypes="ssssssssssssssss" />
  </g>
  <g
     inkscape:label="7p5"
     inkscape:groupmode="layer"
     id="g920"
     style="display:inline"
     sodipodi:insensitive="true">
    <path
       sodipodi:nodetypes="ssssssssssssssss"
       inkscape:connector-curvature="0"
       id="path918"
       d="M 201.08333,73.842849 C 187.93574,65.149806 157.1021,69.97541 141.36309,70.819038 131.06114,71.371234 121.00652,68.18162 109.69133,69.959146 96.944082,71.961637 83.612967,68.392116 72.610738,75.134026 62.953651,81.051666 53.88212,107.11753 45.266052,114.4688 35.527361,122.7779 26.368876,149.12164 19.654762,160.02136 16.31531,165.44264 5.6815507,181.42555 7.1815477,187.61362 8.6065491,193.49231 10.803784,194.90613 16.630951,193.28326 24.025745,191.22381 37.603528,160.91927 41.577381,154.35171 47.465274,144.62084 58.039,120.25599 60.306857,118.74409 62.574715,117.23219 75.803706,92.626172 83.480575,86.212501 93.148003,78.135793 116.33843,83.826713 116.33843,83.826713 117.69886,85.138537 129.79667,82.437782 137.20536,81.780348 149.25391,80.711181 161.40292,81.725598 173.49107,82.158324 179.67228,82.379596 199.50747,88.793216 202.97321,83.670233 204.45743,81.476287 203.29286,75.303766 201.08333,73.842849 Z"
       style="fill:none;stroke:#000000;stroke-width:0.26458332px;stroke-linecap:butt;stroke-linejoin:miter;stroke-opacity:1" />
  </g>
  <g
     style="display:inline"
     id="g924"
     inkscape:groupmode="layer"
     inkscape:label="25"
     sodipodi:insensitive="true">
    <path
       style="fill:none;stroke:#000000;stroke-width:0.26458332px;stroke-linecap:butt;stroke-linejoin:miter;stroke-opacity:1"
       d="M 201.08333,64.84701 C 187.93574,56.153967 157.1021,60.979571 141.36309,61.823199 131.06114,62.375395 121.00652,59.185781 109.69133,60.963307 96.944082,62.965798 83.612967,59.396277 72.610738,66.138187 62.953651,72.055827 53.88212,98.121652 45.266052,105.47291 35.527361,113.78201 26.368876,140.12575 19.654762,151.02547 16.31531,156.44675 5.6815507,172.42966 7.1815477,178.61773 8.6065491,184.49642 10.803784,185.91024 16.630951,184.28737 24.025745,182.22792 37.603528,151.92338 41.577381,145.35582 47.465274,135.62495 58.039,111.2601 60.306857,109.7482 62.574715,108.2363 75.803706,83.630333 83.480575,77.216662 93.148003,69.139954 116.33843,74.830874 116.33843,74.830874 117.69886,76.142698 129.79667,73.441943 137.20536,72.784509 149.25391,71.715342 161.40292,72.729759 173.49107,73.162485 179.67228,73.383757 199.50747,79.797377 202.97321,74.674394 204.45743,72.480448 203.29286,66.307927 201.08333,64.84701 Z"
       id="path922"
       inkscape:connector-curvature="0"
       sodipodi:nodetypes="ssssssssssssssss" />
  </g>
</svg>
