<?xml version="1.0" encoding="UTF-8" standalone="no"?>
<!-- Created with Inkscape (http://www.inkscape.org/) -->

<svg
   xmlns:dc="http://purl.org/dc/elements/1.1/"
   xmlns:cc="http://creativecommons.org/ns#"
   xmlns:rdf="http://www.w3.org/1999/02/22-rdf-syntax-ns#"
   xmlns:svg="http://www.w3.org/2000/svg"
   xmlns="http://www.w3.org/2000/svg"
   xmlns:sodipodi="http://sodipodi.sourceforge.net/DTD/sodipodi-0.dtd"
   xmlns:inkscape="http://www.inkscape.org/namespaces/inkscape"
   width="210mm"
   height="297mm"
   viewBox="0 0 210 297"
   version="1.1"
   id="svg8"
   inkscape:version="0.92.3 (2405546, 2018-03-11)"
   sodipodi:docname="volume.svg">
  <defs
     id="defs2" />
  <sodipodi:namedview
     id="base"
     pagecolor="#ffffff"
     bordercolor="#666666"
     borderopacity="1.0"
     inkscape:pageopacity="0.0"
     inkscape:pageshadow="2"
     inkscape:zoom="0.7"
     inkscape:cx="-11.334261"
     inkscape:cy="592.94599"
     inkscape:document-units="mm"
     inkscape:current-layer="layer2"
     showgrid="false"
     inkscape:window-width="765"
     inkscape:window-height="417"
     inkscape:window-x="669"
     inkscape:window-y="150"
     inkscape:window-maximized="0" />
  <metadata
     id="metadata5">
    <rdf:RDF>
      <cc:Work
         rdf:about="">
        <dc:format>image/svg+xml</dc:format>
        <dc:type
           rdf:resource="http://purl.org/dc/dcmitype/StillImage" />
        <dc:title />
      </cc:Work>
    </rdf:RDF>
  </metadata>
  <g
     inkscape:label="m2p45"
     inkscape:groupmode="layer"
     id="layer1"
     sodipodi:insensitive="true">
    <path
       style="fill:none;stroke:#000000;stroke-width:0.26458332px;stroke-linecap:butt;stroke-linejoin:miter;stroke-opacity:1"
       d="M 12.095238,108.76785 C 13.204883,94.245151 33.597062,88.309063 46.869048,82.309522 64.318553,74.421553 84.064417,69.963782 103.1875,70.970237 118.74676,71.789127 136.00907,74.757233 147.78869,84.955355 155.71314,91.815895 165.99647,103.88561 161.39583,113.30357 155.67945,125.00556 133.16769,113.21299 123.22024,121.61905 111.6047,131.43473 115.36054,151.80496 106.21131,163.95238 97.083458,176.07142 85.223066,194.67899 70.303572,191.92262 57.129815,189.48877 51.564459,170.76577 49.514881,157.52678 47.869207,146.89676 62.922692,135.18267 57.074405,126.15476 50.733004,116.36564 32.948771,125.25756 22.678571,119.72916 18.206434,117.32183 11.708299,113.83199 12.095238,108.76785 Z"
       id="path815"
       inkscape:connector-curvature="0"
       sodipodi:nodetypes="aaaaaaaaaaaa" />
  </g>
  <g
     inkscape:groupmode="layer"
     id="layer2"
     inkscape:label="m1"
     sodipodi:insensitive="true">
    <path
       style="fill:none;stroke:#000000;stroke-width:0.26458332px;stroke-linecap:butt;stroke-linejoin:miter;stroke-opacity:1"
       d="M 17.013894,127.97765 C 18.123539,113.45495 38.51572,107.51886 51.7877,101.51932 69.23721,93.631351 88.98307,89.17358 108.10616,90.180035 123.66542,90.998925 140.92773,93.967031 152.70735,104.16515 160.6318,111.02569 170.91513,123.09541 166.31449,132.51337 160.59811,144.21536 138.08635,132.42279 128.1389,140.82885 116.52336,150.64453 120.2792,171.01476 111.12997,183.16218 102.00212,195.28121 90.14172,213.88878 75.22223,211.13241 62.04847,208.69856 56.48312,189.97556 54.43354,176.73658 52.78786,166.10656 67.84135,154.39247 61.99306,145.36456 55.65166,135.57544 37.86743,144.46736 27.597227,138.93896 23.12509,136.53163 16.626955,133.04179 17.013894,127.97765 Z"
       id="path815-3"
       inkscape:connector-curvature="0"
       sodipodi:nodetypes="aaaaaaaaaaaa" />
  </g>
  <g
     inkscape:groupmode="layer"
     id="layer3"
     inkscape:label="2p477"
     sodipodi:insensitive="true">
    <path
       style="fill:none;stroke:#000000;stroke-width:0.26458332px;stroke-linecap:butt;stroke-linejoin:miter;stroke-opacity:1"
       d="M 19.281751,147.63241 C 20.391396,133.10971 40.783575,127.17362 54.055561,121.17408 71.505067,113.28611 91.250931,108.82834 110.37401,109.8348 125.93327,110.65369 143.19558,113.62179 154.9752,123.81991 162.89965,130.68045 173.18298,142.75017 168.58234,152.16813 162.86596,163.87012 140.3542,152.07755 130.40675,160.48361 118.79121,170.29929 122.54705,190.66952 113.39782,202.81694 104.26997,214.93598 92.409581,233.54355 77.490085,230.78718 64.316328,228.35333 58.750973,209.63033 56.701394,196.39134 55.05572,185.76132 70.109205,174.04723 64.260919,165.01932 57.919518,155.2302 40.135284,164.12212 29.865084,158.59372 25.392947,156.18639 18.894812,152.69655 19.281751,147.63241 Z"
       id="path815-6"
       inkscape:connector-curvature="0"
       sodipodi:nodetypes="aaaaaaaaaaaa" />
  </g>
  <g
     inkscape:groupmode="layer"
     id="layer4"
     inkscape:label="4p5"
     sodipodi:insensitive="true">
    <path
       style="fill:none;stroke:#000000;stroke-width:0.26458332px;stroke-linecap:butt;stroke-linejoin:miter;stroke-opacity:1"
       d="M 21.549608,161.23955 C 22.659253,146.71685 43.051432,140.78077 56.323418,134.78122 73.772924,126.89326 93.518782,122.43549 112.64187,123.44194 128.20113,124.26083 145.46344,127.22894 157.24306,137.42706 165.16751,144.2876 175.45084,156.35731 170.8502,165.77527 165.13382,177.47726 142.62206,165.68469 132.67461,174.09075 121.05907,183.90643 124.81491,204.27666 115.66568,216.42408 106.53783,228.54312 94.677432,247.15069 79.757942,244.39432 66.584185,241.96047 61.01883,223.23747 58.969251,209.99848 57.323577,199.36846 72.377062,187.65437 66.528776,178.62646 60.187375,168.83734 42.403141,177.72926 32.132941,172.20086 27.660804,169.79353 21.162669,166.30369 21.549608,161.23955 Z"
       id="path815-7"
       inkscape:connector-curvature="0"
       sodipodi:nodetypes="aaaaaaaaaaaa" />
  </g>
</svg>
